<?xml version="1.0" standalone="no"?>
<!DOCTYPE svg PUBLIC "-//W3C//DTD SVG 20010904//EN"
 "http://www.w3.org/TR/2001/REC-SVG-20010904/DTD/svg10.dtd">
<svg version="1.0" xmlns="http://www.w3.org/2000/svg"
 width="1500.000000px" height="500.000000px" viewBox="0 0 2000 600"
 preserveAspectRatio="xMidYMid meet">
<metadata>
Created by potrace 1.16, written by Peter Selinger 2001-2019
</metadata>
<g transform="translate(0.000000,345.000000) scale(0.100000,-0.100000)"
fill="#000000" stroke="none">
<path d="M4149 3386 c-4 -4 -212 -27 -372 -42 -82 -7 -107 -26 -107 -79 0 -57
24 -93 70 -105 22 -6 40 -13 40 -15 0 -2 9 -73 19 -157 11 -84 22 -191 25
-238 l7 -85 -33 -15 c-40 -18 -53 -52 -44 -113 9 -62 39 -79 111 -66 72 12
340 39 394 39 82 0 114 46 91 130 -9 35 -18 45 -54 61 l-43 18 -11 108 c-28
269 -35 377 -23 381 51 17 71 122 31 162 -18 18 -87 29 -101 16z m74 -57 c15
-24 0 -68 -28 -81 -23 -10 -25 -17 -25 -77 0 -62 21 -304 37 -435 8 -58 9 -60
43 -69 50 -13 61 -25 58 -66 -4 -42 8 -39 -278 -67 -250 -24 -225 -27 -225 26
0 42 2 46 38 63 l38 18 -5 52 c-56 518 -51 488 -92 501 -53 16 -59 22 -59 62
l0 39 142 12 c79 8 182 20 230 27 104 16 113 16 126 -5z"/>
<path d="M4751 3352 c-29 -11 -65 -28 -80 -39 -98 -73 -138 -252 -80 -364 l19
-38 -25 -25 c-25 -25 -25 -28 -25 -185 0 -168 6 -191 48 -191 14 0 99 -9 324
-34 68 -7 189 12 245 40 159 77 216 315 106 443 l-34 41 27 23 c26 22 27 27
31 158 7 169 4 172 -120 175 -45 1 -149 4 -232 8 -133 6 -156 5 -204 -12z
m279 -33 c47 -7 119 -12 160 -13 l75 -1 -3 -120 c-2 -66 -7 -124 -12 -129 -5
-5 -31 -11 -59 -14 l-50 -4 -10 38 c-5 22 -13 50 -16 64 -10 41 -31 61 -72 71
-56 13 -102 -5 -119 -47 -28 -67 2 -96 159 -150 129 -45 162 -66 188 -117 31
-60 28 -159 -5 -225 -55 -109 -160 -158 -317 -150 -147 9 -334 32 -341 42 -9
14 -10 177 -1 241 5 42 10 49 40 61 39 17 40 22 13 57 -61 77 -67 182 -17 278
59 115 166 147 387 118z"/>
<path d="M4745 2841 c-12 -21 8 -123 31 -150 44 -53 149 -67 189 -26 56 55 8
119 -111 150 -38 10 -77 22 -86 27 -10 4 -19 4 -23 -1z"/>
<path d="M5692 3277 c-17 -20 -92 -335 -85 -355 12 -30 37 -41 94 -42 71 0 89
14 132 100 18 36 39 66 48 68 15 3 15 -5 2 -85 -20 -131 -61 -342 -68 -353 -4
-6 -24 -10 -46 -10 -78 0 -119 -43 -119 -125 0 -46 24 -62 105 -70 129 -12
279 -36 383 -61 137 -32 175 -32 201 2 26 34 37 89 22 120 -7 16 -32 35 -67
51 l-55 25 6 46 c8 52 63 337 71 365 10 33 22 7 34 -75 6 -46 16 -90 21 -99
11 -21 61 -39 109 -39 62 0 70 18 93 210 20 169 20 171 1 190 -15 15 -69 27
-254 55 -129 20 -302 49 -385 66 -163 31 -227 36 -243 16z m213 -56 c83 -16
256 -46 385 -67 129 -20 240 -42 246 -48 8 -8 6 -48 -7 -151 -10 -77 -18 -146
-19 -152 0 -9 -16 -13 -45 -13 -53 0 -58 7 -75 113 -16 100 -24 117 -57 117
-16 0 -34 -4 -41 -9 -25 -15 -110 -477 -92 -496 6 -5 34 -21 63 -35 44 -21 52
-30 54 -55 2 -16 -4 -39 -12 -49 -14 -19 -17 -18 -132 7 -149 33 -278 54 -387
63 -91 7 -100 13 -87 61 9 34 43 53 97 53 24 0 47 6 54 15 12 15 74 333 86
442 l7 62 -42 11 c-53 14 -63 7 -102 -74 -42 -86 -56 -99 -102 -93 -21 3 -41
7 -43 10 -6 5 52 258 67 295 4 12 14 22 21 22 7 0 81 -13 163 -29z"/>
<path d="M2701 3172 c-304 -70 -336 -79 -353 -103 -18 -23 -18 -31 -7 -67 15
-50 37 -72 81 -81 l32 -7 43 -184 c23 -102 45 -208 48 -237 7 -49 5 -54 -21
-77 -25 -21 -29 -31 -27 -71 1 -25 9 -57 17 -71 22 -32 58 -31 204 5 64 17
158 37 207 46 115 20 134 29 146 64 l10 29 24 -24 c13 -13 30 -24 37 -24 6 0
60 13 118 30 58 16 134 34 169 39 76 12 96 28 95 79 0 65 -12 92 -47 107 -21
9 -55 45 -102 109 -38 52 -78 98 -88 101 -16 6 -15 10 9 50 27 47 41 130 30
188 -10 55 -61 123 -111 147 -89 43 -144 38 -514 -48z m485 9 c23 -10 50 -32
62 -48 25 -35 41 -100 35 -140 -9 -62 -14 -73 -53 -122 -22 -28 -40 -53 -40
-56 0 -3 14 -5 31 -5 36 0 61 -24 140 -134 32 -44 66 -80 84 -88 26 -11 30
-18 30 -53 l0 -40 -80 -16 c-44 -9 -115 -26 -158 -38 -43 -12 -85 -20 -92 -17
-7 2 -32 40 -56 83 -23 43 -60 104 -81 136 -36 53 -42 57 -77 57 -59 0 -63
-12 -37 -115 l22 -90 44 -3 c56 -4 70 -16 70 -58 0 -40 -12 -48 -103 -63 -38
-7 -135 -28 -215 -47 -138 -33 -147 -34 -159 -18 -21 28 -15 56 18 90 l31 32
-11 69 c-21 123 -93 438 -103 450 -5 7 -28 16 -51 20 -35 7 -43 13 -51 41 -5
18 -6 35 -2 39 3 4 147 39 319 79 341 79 412 87 483 55z"/>
<path d="M2821 3026 c-13 -16 -10 -47 16 -158 17 -75 28 -82 83 -53 39 20 50
43 50 109 0 44 -5 60 -26 85 -21 26 -33 31 -69 31 -25 0 -48 -6 -54 -14z"/>
<path d="M6904 3034 c-10 -14 -19 -47 -22 -73 -4 -46 -2 -50 31 -76 l34 -28
-37 -146 c-21 -80 -50 -185 -64 -233 l-27 -87 -36 -3 c-25 -2 -42 -11 -56 -29
-24 -34 -33 -108 -15 -131 8 -11 65 -31 151 -52 75 -20 182 -49 237 -66 55
-17 112 -30 126 -28 39 4 67 47 68 104 1 40 -3 50 -30 73 l-31 26 42 150 c82
293 93 325 118 325 44 0 77 46 77 107 0 39 -3 45 -32 58 -18 8 -80 26 -138 40
-58 15 -158 42 -222 61 -65 18 -127 34 -138 34 -11 0 -27 -12 -36 -26z m165
-54 c53 -16 151 -43 219 -59 67 -17 127 -33 133 -37 12 -7 4 -51 -13 -71 -6
-7 -21 -13 -34 -13 -13 0 -30 -10 -38 -22 -17 -28 -72 -205 -120 -385 l-34
-131 36 -29 c32 -26 34 -32 28 -65 -3 -20 -12 -38 -19 -41 -6 -2 -64 11 -127
30 -63 18 -167 47 -230 64 -63 16 -119 34 -123 38 -13 13 10 78 29 85 9 3 29
6 44 6 18 0 33 7 39 18 15 28 120 416 127 471 6 47 5 49 -25 67 -37 22 -45 42
-32 78 13 33 22 33 140 -4z"/>
<path d="M1855 2970 c-38 -16 -126 -45 -195 -65 -87 -26 -131 -44 -145 -60
-14 -17 -27 -22 -45 -19 -15 3 -76 -13 -155 -41 -132 -48 -261 -91 -304 -103
-39 -11 -47 -34 -33 -89 15 -57 33 -73 83 -73 l37 0 36 -107 c49 -153 94 -302
101 -343 5 -28 2 -39 -14 -54 -33 -30 -25 -123 13 -148 6 -4 25 -8 42 -8 42 0
456 138 471 157 7 9 19 12 31 9 11 -4 57 8 108 28 49 19 148 51 219 72 72 20
138 44 148 52 12 10 17 30 17 62 0 56 -29 90 -87 99 l-37 6 -59 185 c-100 316
-93 284 -69 308 34 34 27 128 -12 154 -22 15 -83 6 -151 -22z m129 -26 c22
-21 20 -57 -4 -79 -26 -24 -25 -57 6 -168 30 -106 111 -352 124 -377 6 -11 29
-21 57 -26 39 -8 49 -14 57 -37 14 -40 -1 -50 -144 -92 -69 -20 -163 -50 -209
-67 -81 -31 -84 -31 -97 -13 -21 28 -17 56 12 87 l27 27 -23 83 c-38 136 -34
134 -152 92 -104 -37 -103 -36 -74 -130 34 -107 47 -124 96 -124 34 0 41 -4
46 -24 13 -52 8 -55 -219 -129 -136 -44 -220 -67 -226 -61 -24 24 -23 61 3 89
14 15 26 31 26 35 0 32 -95 354 -136 463 l-26 67 -44 0 c-39 0 -46 3 -55 27
-16 44 -8 54 61 73 36 10 127 41 204 69 155 58 185 61 199 17 9 -26 6 -32 -17
-52 -14 -13 -26 -33 -26 -46 0 -31 37 -159 50 -172 10 -10 171 35 197 56 13
10 -3 77 -37 156 -16 35 -24 42 -47 42 -37 0 -49 9 -63 44 -15 41 -5 48 120
85 58 17 146 46 195 65 106 41 99 40 119 20z m-393 -254 c21 0 44 -42 55 -99
6 -27 3 -30 -52 -50 -31 -12 -61 -18 -65 -14 -4 4 -14 33 -22 64 -14 56 -14
56 12 82 14 15 32 24 39 22 8 -3 22 -5 33 -5z m152 -412 l19 -65 -25 -25 c-21
-21 -31 -24 -64 -19 -37 6 -39 8 -60 71 -20 59 -20 66 -5 74 24 14 95 35 107
32 5 -1 18 -32 28 -68z"/>
<path d="M7931 2713 c-19 -15 -25 -32 -29 -75 -4 -51 -2 -56 28 -81 l32 -27
-38 -43 c-181 -203 -322 -348 -344 -353 -14 -3 -32 -8 -42 -10 -34 -9 -61
-108 -39 -142 4 -8 57 -32 117 -54 201 -73 203 -73 225 -60 17 11 23 9 42 -11
14 -16 71 -41 162 -72 77 -27 167 -61 199 -77 92 -44 125 -37 162 34 18 35 12
73 -16 103 -19 20 -19 23 24 150 45 133 97 258 161 385 28 55 35 79 30 102 -8
35 -7 34 -212 98 -89 28 -210 71 -270 96 -132 57 -161 62 -192 37z m194 -88
c64 -26 201 -72 423 -141 20 -6 14 -30 -32 -122 -54 -108 -147 -342 -174 -440
l-21 -72 25 -29 c29 -34 30 -51 6 -80 l-17 -22 -67 30 c-37 17 -125 51 -195
75 -70 24 -136 47 -145 51 -21 8 -22 24 -6 60 9 21 18 25 55 25 44 0 44 0 69
55 29 66 30 81 7 90 -47 19 -158 55 -170 55 -18 0 -82 -90 -83 -116 0 -11 11
-30 25 -42 14 -12 25 -26 25 -31 0 -26 -21 -61 -37 -61 -9 0 -63 18 -119 40
-56 22 -109 40 -118 40 -30 0 -46 28 -34 60 7 23 19 32 48 40 31 8 63 36 158
138 212 226 282 306 279 317 -2 5 -18 18 -37 27 -41 21 -51 36 -43 68 11 45
21 51 61 34 21 -9 73 -31 117 -49z"/>
<path d="M8072 2385 c-118 -123 -123 -132 -80 -149 55 -23 118 -40 124 -33 9
9 85 217 91 250 5 24 2 27 -20 27 -18 0 -48 -25 -115 -95z"/>
<path d="M525 2500 c-38 -16 -110 -43 -160 -61 -163 -58 -265 -146 -294 -254
-17 -63 -13 -174 9 -261 47 -181 146 -319 263 -362 73 -28 87 -27 205 3 134
34 205 59 281 101 120 65 123 73 96 219 -21 110 -30 125 -75 125 -89 0 -130
-39 -130 -124 0 -52 -16 -66 -77 -66 -55 0 -94 29 -130 96 -77 145 -92 279
-39 332 l27 27 37 -41 c20 -22 49 -55 64 -72 33 -40 79 -43 129 -9 46 31 48
68 8 193 -63 200 -77 209 -214 154z m119 -32 c8 -13 31 -74 52 -137 l38 -114
-28 -23 c-15 -13 -33 -24 -40 -24 -7 0 -41 34 -75 75 -34 41 -66 75 -71 75
-29 0 -82 -33 -100 -62 -15 -25 -20 -50 -20 -106 0 -83 23 -160 77 -264 30
-58 42 -71 86 -93 56 -28 87 -31 138 -14 46 16 59 35 59 90 0 56 21 86 66 95
37 7 36 9 59 -110 15 -79 15 -80 -8 -104 -53 -56 -297 -148 -424 -159 -50 -5
-70 -2 -107 16 -135 66 -240 270 -240 471 0 73 4 92 26 136 48 92 126 142 323
208 61 20 121 43 135 51 34 19 37 19 54 -7z"/>
<path d="M8921 2357 c-22 -27 -41 -88 -35 -112 3 -14 19 -36 35 -49 l29 -25
-30 -83 c-46 -130 -157 -363 -171 -360 -54 13 -109 -42 -109 -109 0 -48 16
-60 135 -104 55 -21 124 -48 154 -61 77 -35 112 -32 150 11 24 27 31 45 31 76
0 37 -3 42 -50 71 -28 17 -49 36 -47 42 2 6 15 40 28 75 l23 65 52 -208 c29
-115 58 -214 66 -221 7 -6 59 -30 116 -53 145 -59 135 -68 247 204 117 283
154 358 180 362 45 7 74 26 89 57 21 43 20 88 -1 107 -24 21 -299 128 -329
128 -34 0 -63 -33 -71 -82 l-7 -43 -17 75 c-9 41 -20 83 -24 92 -4 10 -59 37
-138 68 -73 28 -154 60 -181 71 -56 22 -109 25 -125 6z m234 -97 c88 -33 164
-65 168 -69 4 -5 23 -77 41 -162 39 -180 64 -269 75 -269 15 0 28 23 60 107
42 111 43 105 -23 161 -21 18 -25 28 -20 50 14 58 19 57 177 -5 81 -32 149
-64 152 -71 12 -31 -19 -67 -65 -77 -44 -10 -46 -12 -92 -105 -25 -52 -83
-183 -128 -292 -46 -109 -86 -201 -91 -203 -11 -7 -182 64 -195 81 -6 8 -37
120 -68 249 -32 129 -62 238 -68 241 -17 11 -34 -20 -78 -144 l-41 -117 29
-25 c15 -14 42 -34 58 -46 28 -20 28 -22 14 -48 -26 -50 -37 -50 -196 13 -82
32 -157 61 -168 65 -14 5 -17 12 -11 34 10 41 23 51 68 54 l41 3 67 145 c81
173 129 300 129 340 0 19 -10 36 -30 53 -16 14 -30 34 -30 44 0 29 30 65 49
60 9 -3 88 -33 176 -67z"/>
<path d="M18435 1895 c-71 -30 -135 -59 -142 -64 -7 -6 -23 -11 -36 -11 -13 0
-63 -18 -111 -41 -48 -22 -149 -61 -224 -86 -75 -24 -142 -49 -149 -55 -19
-16 -15 -79 7 -115 19 -32 36 -40 96 -45 25 -2 62 -30 163 -121 117 -106 135
-127 168 -194 l37 -75 -21 -17 c-12 -9 -34 -24 -49 -35 -24 -17 -26 -23 -22
-72 6 -72 29 -97 83 -91 22 2 153 47 290 99 281 107 289 112 267 185 -19 64
-35 78 -84 77 -24 0 -56 -4 -70 -7 -24 -6 -27 -3 -55 73 l-31 79 33 189 c29
167 36 192 59 215 29 29 30 36 15 90 -13 47 -42 77 -71 76 -13 -1 -81 -25
-153 -54z m178 -32 c8 -27 6 -36 -15 -61 -20 -24 -29 -61 -58 -226 -33 -197
-33 -199 -16 -250 10 -28 27 -71 39 -96 l22 -45 72 3 c63 3 73 0 82 -17 27
-49 8 -72 -84 -101 -22 -7 -127 -46 -234 -87 -208 -80 -212 -80 -226 -22 -5
22 -1 30 20 45 76 53 81 80 35 176 -35 71 -61 100 -214 239 -102 93 -112 99
-152 99 -34 0 -47 5 -64 27 -23 29 -23 52 0 64 8 4 67 24 130 45 63 20 158 56
210 80 86 38 96 41 108 26 18 -23 15 -60 -8 -89 -14 -18 -17 -30 -10 -42 22
-36 139 -155 146 -148 14 13 32 211 21 225 -5 6 -24 12 -43 12 -23 0 -37 6
-44 21 -25 45 -11 58 115 109 66 26 129 48 140 47 13 -1 22 -13 28 -34z"/>
<path d="M10787 1638 c-10 -8 -23 -33 -28 -58 -12 -53 2 -95 38 -114 24 -12
23 -14 -154 -206 -144 -157 -186 -197 -216 -205 -20 -6 -43 -17 -50 -25 -36
-39 -40 -123 -6 -142 7 -4 79 -31 157 -59 120 -43 148 -50 168 -40 20 9 25 7
33 -8 7 -12 64 -37 163 -71 84 -29 179 -66 210 -82 84 -41 123 -35 153 22 21
41 19 82 -7 109 l-21 24 22 74 c30 104 83 237 152 382 62 130 70 168 42 193
-10 8 -93 38 -184 66 -91 29 -215 73 -275 98 -121 52 -170 62 -197 42z m113
-58 c53 -27 244 -95 377 -135 65 -20 124 -42 131 -49 11 -11 6 -29 -32 -104
-76 -151 -196 -464 -196 -510 0 -8 11 -27 25 -43 25 -30 24 -49 -2 -81 -13
-15 -19 -14 -76 12 -34 15 -124 49 -199 75 -170 59 -175 62 -157 101 12 24 22
30 59 34 42 5 47 8 66 50 41 87 41 86 -22 110 -32 11 -77 26 -101 33 -43 11
-44 10 -68 -18 -13 -17 -32 -45 -42 -62 l-17 -33 31 -32 c31 -32 31 -34 17
-67 -18 -42 -14 -42 -281 60 -44 17 -17 82 38 93 24 5 56 31 119 99 203 217
310 337 310 349 0 7 -17 22 -38 33 -40 22 -52 57 -32 95 12 23 27 21 90 -10z"/>
<path d="M10944 1328 c-86 -90 -128 -144 -120 -157 10 -15 137 -54 146 -45 13
14 99 257 94 266 -16 25 -55 3 -120 -64z"/>
<path d="M17280 1481 c-124 -40 -147 -50 -158 -73 -10 -22 -10 -34 2 -67 7
-23 11 -41 9 -41 -3 0 -26 17 -52 38 -25 22 -56 41 -68 44 -22 6 -348 -95
-400 -123 -19 -10 -23 -21 -23 -56 0 -49 21 -97 45 -107 9 -3 31 -6 49 -6 26
0 35 -6 46 -27 24 -53 42 -109 85 -271 l43 -162 -29 -29 c-16 -16 -29 -38 -29
-48 0 -41 22 -94 46 -110 24 -15 31 -14 172 31 226 73 232 75 243 103 13 36
11 80 -6 113 -16 32 -20 33 -104 34 l-54 1 -23 68 c-12 37 -21 67 -19 67 2 0
78 -56 169 -125 94 -70 176 -125 188 -125 19 0 157 39 215 61 34 13 38 52 14
132 -30 99 -138 476 -145 508 -4 19 1 32 19 49 33 31 35 105 4 144 -29 37 -66
33 -239 -23z m210 -10 c16 -32 12 -57 -16 -91 -35 -41 -33 -53 60 -370 41
-140 76 -264 78 -274 2 -16 -12 -24 -100 -51 l-103 -33 -112 86 c-170 129
-299 222 -308 222 -5 0 -9 -9 -9 -20 0 -25 77 -241 91 -255 5 -5 40 -10 77
-10 l67 0 0 -44 0 -44 -169 -55 c-161 -52 -170 -54 -183 -36 -21 28 -16 64 12
86 14 11 25 29 25 41 0 36 -87 358 -117 432 l-28 70 -48 3 c-52 3 -81 32 -75
73 3 19 26 30 178 81 96 32 180 58 186 58 7 0 39 -22 71 -49 104 -86 275 -211
289 -211 8 0 14 6 14 13 0 21 -58 188 -71 203 -7 8 -31 14 -60 14 -38 0 -51 4
-63 22 -18 26 -21 54 -6 63 14 9 282 94 297 95 7 0 17 -9 23 -19z"/>
<path d="M11767 1329 c-23 -13 -47 -68 -47 -105 0 -17 12 -37 36 -59 34 -31
36 -36 29 -77 -4 -23 -34 -127 -68 -230 l-61 -187 -35 -3 c-27 -2 -41 -11 -58
-37 -42 -63 -23 -133 39 -145 18 -3 99 -25 180 -48 166 -46 182 -45 218 14 40
67 21 114 -60 148 -28 12 -30 16 -24 47 4 19 12 53 19 76 l13 42 12 -30 c6
-16 38 -104 71 -194 32 -91 66 -172 76 -181 17 -16 153 -58 218 -67 41 -6 58
15 85 107 54 185 143 467 156 492 9 17 27 31 47 36 63 16 100 114 60 159 -12
13 -73 35 -176 63 -189 52 -204 51 -227 -23 l-16 -49 -22 70 c-12 39 -28 74
-35 80 -12 10 -380 112 -401 112 -6 0 -19 -5 -29 -11z m220 -84 c92 -25 172
-50 178 -55 7 -6 22 -45 35 -88 43 -146 112 -322 126 -322 16 0 64 149 64 198
0 26 -7 36 -40 57 -34 21 -40 31 -40 59 0 57 11 58 170 14 80 -22 151 -46 158
-52 23 -22 -4 -73 -46 -87 -20 -6 -43 -16 -50 -22 -12 -9 -101 -278 -163 -492
-17 -60 -35 -113 -38 -118 -4 -4 -34 2 -67 12 -32 11 -78 25 -101 31 -40 10
-42 12 -69 88 -92 258 -144 396 -154 406 -17 17 -25 -3 -60 -142 -35 -141 -35
-139 42 -178 26 -13 48 -29 48 -35 0 -6 -8 -24 -17 -41 -16 -26 -22 -29 -53
-24 -58 9 -310 82 -321 93 -6 6 -6 19 1 39 13 34 26 44 61 44 15 0 31 6 36 13
15 18 130 372 143 439 13 65 6 86 -34 108 -41 21 -32 100 11 100 7 0 88 -20
180 -45z"/>
<path d="M15927 1129 c-151 -22 -312 -93 -376 -166 -62 -70 -85 -139 -84 -253
1 -220 92 -399 241 -472 61 -30 74 -33 150 -31 242 5 440 80 520 197 46 69 65
143 65 256 0 151 -37 270 -113 365 -76 95 -216 131 -403 104z m237 -50 c93
-26 162 -100 207 -224 19 -50 23 -82 23 -190 0 -115 -2 -136 -23 -182 -53
-119 -186 -194 -394 -222 -124 -17 -185 -14 -242 13 -57 26 -133 103 -165 165
-55 109 -75 286 -44 392 42 143 264 257 504 258 52 1 113 -4 134 -10z"/>
<path d="M15852 957 c-55 -58 -52 -209 7 -387 35 -104 62 -148 109 -181 31
-21 36 -22 61 -8 55 31 73 125 51 271 -22 156 -74 266 -144 309 -41 25 -58 24
-84 -4z m76 -43 c68 -47 142 -327 113 -429 -18 -65 -25 -71 -55 -52 -78 52
-156 367 -116 471 11 30 26 32 58 10z"/>
<path d="M12944 1032 c-20 -13 -31 -46 -44 -122 -6 -41 -18 -108 -27 -149 -8
-41 -12 -84 -9 -96 13 -52 136 -58 182 -8 12 13 34 52 46 86 30 79 54 84 50
12 -4 -57 -43 -389 -46 -392 -1 -2 -27 -7 -57 -13 -74 -14 -99 -43 -99 -114 0
-77 10 -82 200 -89 85 -3 213 -15 284 -26 71 -12 141 -21 157 -21 51 0 92 85
69 145 -7 19 -27 34 -71 53 l-61 27 7 55 c3 30 15 129 27 219 24 184 32 191
62 52 9 -44 24 -87 32 -96 11 -10 35 -15 79 -15 88 0 91 5 103 205 14 224 36
204 -259 232 -129 12 -308 31 -399 43 -179 22 -209 24 -226 12z m261 -62 c88
-10 241 -26 340 -35 99 -8 195 -18 213 -21 l33 -5 -7 -147 c-4 -81 -11 -155
-16 -164 -9 -19 -62 -25 -85 -10 -7 4 -17 32 -23 62 -6 30 -18 76 -27 103 -14
45 -16 47 -53 47 -21 0 -42 -4 -45 -10 -10 -16 -55 -379 -55 -443 0 -58 0 -58
38 -73 70 -27 87 -39 90 -65 2 -14 -5 -35 -15 -47 l-18 -22 -118 20 c-128 21
-319 40 -409 40 -31 0 -60 5 -63 11 -4 6 -4 25 -1 44 7 36 25 46 108 60 21 3
40 10 42 14 7 10 42 296 52 412 6 81 5 88 -14 98 -11 6 -35 11 -51 11 -29 0
-34 -6 -74 -87 l-42 -88 -47 -3 c-38 -2 -48 0 -48 12 0 26 49 296 56 307 3 6
22 8 43 5 20 -4 108 -15 196 -26z"/>
<path d="M14970 970 c-41 -4 -124 -8 -184 -9 -86 -1 -113 -5 -128 -17 -14 -14
-20 -15 -33 -4 -12 10 -46 11 -153 5 -75 -4 -190 -10 -255 -14 -132 -7 -137
-9 -137 -79 0 -58 13 -79 59 -93 l38 -11 7 -136 c7 -165 8 -320 0 -348 -3 -12
-16 -27 -29 -34 -32 -17 -49 -61 -41 -105 13 -67 11 -67 275 -60 155 5 245 11
262 20 17 8 32 9 43 3 10 -6 67 -5 148 1 73 6 181 11 240 11 95 0 110 2 128
20 30 30 28 103 -5 135 -13 14 -31 25 -40 25 -28 0 -34 46 -40 279 l-6 230 29
15 c36 18 42 33 42 96 0 80 -25 88 -220 70z m161 -40 c31 -17 24 -57 -16 -93
l-35 -31 1 -180 c1 -100 4 -221 8 -271 6 -89 6 -90 38 -106 48 -24 63 -39 63
-63 0 -42 -16 -46 -185 -47 -88 0 -186 -4 -217 -8 -67 -8 -88 0 -88 34 0 25
20 50 56 71 17 10 19 23 19 112 0 55 -3 104 -7 108 -8 8 -161 6 -195 -3 -22
-5 -23 -10 -23 -93 0 -114 8 -136 54 -144 40 -8 56 -39 38 -73 -10 -17 -32
-20 -232 -30 -122 -7 -228 -9 -236 -6 -8 3 -14 19 -14 39 0 29 6 38 36 56 l36
21 -4 267 c-4 291 -4 293 -61 308 -24 6 -33 15 -38 39 -3 17 -3 36 0 41 3 5
38 9 76 8 39 0 139 5 223 11 84 7 159 10 167 7 38 -15 28 -76 -14 -94 -35 -14
-41 -32 -41 -132 0 -94 3 -96 108 -91 128 7 122 3 122 81 0 97 -13 135 -52
153 -24 10 -34 22 -36 42 -6 52 8 57 152 58 107 1 221 8 269 17 5 1 17 -3 28
-8z m-463 -139 c9 -5 25 -12 35 -15 14 -4 17 -17 17 -70 0 -73 -3 -76 -81 -76
l-49 0 0 70 c0 53 3 70 14 70 7 0 19 7 26 15 15 18 15 18 38 6z m62 -445 c0
-72 -1 -75 -29 -89 -23 -11 -37 -12 -64 -4 -38 12 -47 35 -47 119 0 42 6 45
88 47 l52 1 0 -74z"/>
</g>
</svg>
